<svg width="40" height="40" viewBox="0 0 40 40" fill="none" xmlns="http://www.w3.org/2000/svg">
<path d="M39.8798 37.1192L26.8949 24.2407C28.9099 21.6571 29.9999 18.4982 29.9999 15.1757C29.9999 11.1986 28.4349 7.46941 25.6049 4.65766C22.7749 1.84591 19.0049 0.298706 14.9999 0.298706C10.995 0.298706 7.22497 1.85087 4.39498 4.65766C1.55999 7.46445 0 11.1986 0 15.1757C0 19.1478 1.56499 22.8869 4.39498 25.6937C7.22497 28.5055 10.99 30.0527 14.9999 30.0527C18.3499 30.0527 21.5299 28.9716 24.1349 26.9781L37.1198 39.8516C37.1579 39.8894 37.2031 39.9194 37.2529 39.9398C37.3026 39.9603 37.356 39.9708 37.4098 39.9708C37.4637 39.9708 37.517 39.9603 37.5668 39.9398C37.6166 39.9194 37.6618 39.8894 37.6998 39.8516L39.8798 37.6945C39.9179 37.6567 39.9481 37.6119 39.9688 37.5625C39.9894 37.5132 40 37.4603 40 37.4069C40 37.3534 39.9894 37.3005 39.9688 37.2512C39.9481 37.2018 39.9179 37.157 39.8798 37.1192ZM22.9199 23.0307C20.7999 25.1284 17.9899 26.2838 14.9999 26.2838C12.0099 26.2838 9.19996 25.1284 7.07997 23.0307C4.96498 20.9281 3.79998 18.1412 3.79998 15.1757C3.79998 12.2102 4.96498 9.41829 7.07997 7.32064C9.19996 5.22299 12.0099 4.06754 14.9999 4.06754C17.9899 4.06754 20.8049 5.21803 22.9199 7.32064C25.0349 9.42325 26.1999 12.2102 26.1999 15.1757C26.1999 18.1412 25.0349 20.9331 22.9199 23.0307Z" fill="#FFFBFB"/>
</svg>
