<svg width="316" height="316" viewBox="0 0 316 316" fill="none" xmlns="http://www.w3.org/2000/svg">
<g opacity="0.85">
<mask id="path-1-inside-1_26_93" fill="white">
<path d="M315.84 157.92C315.84 245.137 245.137 315.84 157.92 315.84C70.7032 315.84 0 245.137 0 157.92C0 70.7032 70.7032 0 157.92 0C245.137 0 315.84 70.7032 315.84 157.92ZM18.6872 157.92C18.6872 234.816 81.0238 297.153 157.92 297.153C234.816 297.153 297.153 234.816 297.153 157.92C297.153 81.0238 234.816 18.6872 157.92 18.6872C81.0238 18.6872 18.6872 81.0238 18.6872 157.92Z"/>
</mask>
<path d="M315.84 157.92C315.84 245.137 245.137 315.84 157.92 315.84C70.7032 315.84 0 245.137 0 157.92C0 70.7032 70.7032 0 157.92 0C245.137 0 315.84 70.7032 315.84 157.92ZM18.6872 157.92C18.6872 234.816 81.0238 297.153 157.92 297.153C234.816 297.153 297.153 234.816 297.153 157.92C297.153 81.0238 234.816 18.6872 157.92 18.6872C81.0238 18.6872 18.6872 81.0238 18.6872 157.92Z" fill="#333333" stroke="#272727" stroke-width="2" mask="url(#path-1-inside-1_26_93)"/>
</g>
<path opacity="0.85" d="M209.54 297.226C211.255 301.81 208.931 306.913 204.292 308.345C178.514 316.301 151.07 317.508 124.604 311.772C95.0963 305.377 68.0485 290.623 46.6848 269.269C25.3211 247.915 10.543 220.861 4.11229 191.333C-1.65589 164.848 -0.489747 137.374 7.42244 111.558C8.84527 106.915 13.9462 104.583 18.5324 106.295C23.0992 107.999 25.4169 113.09 24.0131 117.802C17.2774 140.411 16.3508 164.412 21.3925 187.562C27.1007 213.772 40.2182 237.786 59.1815 256.741C78.1448 275.696 102.154 288.792 128.346 294.468C151.472 299.48 175.439 298.521 198.008 291.753C202.726 290.338 207.83 292.653 209.54 297.226Z" fill="#FFFDFD" stroke="black"/>
<g opacity="0.85">
<mask id="path-3-inside-2_26_93" fill="white">
<path d="M291.335 157.466C291.335 231.4 231.4 291.335 157.466 291.335C83.5324 291.335 23.5972 231.4 23.5972 157.466C23.5972 83.5325 83.5324 23.5973 157.466 23.5973C231.4 23.5973 291.335 83.5325 291.335 157.466ZM34.8277 157.466C34.8277 225.198 89.7348 280.105 157.466 280.105C225.198 280.105 280.105 225.198 280.105 157.466C280.105 89.7349 225.198 34.8277 157.466 34.8277C89.7348 34.8277 34.8277 89.7349 34.8277 157.466Z"/>
</mask>
<path d="M291.335 157.466C291.335 231.4 231.4 291.335 157.466 291.335C83.5324 291.335 23.5972 231.4 23.5972 157.466C23.5972 83.5325 83.5324 23.5973 157.466 23.5973C231.4 23.5973 291.335 83.5325 291.335 157.466ZM34.8277 157.466C34.8277 225.198 89.7348 280.105 157.466 280.105C225.198 280.105 280.105 225.198 280.105 157.466C280.105 89.7349 225.198 34.8277 157.466 34.8277C89.7348 34.8277 34.8277 89.7349 34.8277 157.466Z" fill="#333333" stroke="black" stroke-width="2" mask="url(#path-3-inside-2_26_93)"/>
</g>
<g opacity="0.85">
<mask id="path-4-inside-3_26_93" fill="white">
<path d="M248.155 248.155C250.348 250.348 250.356 253.913 248.073 256.012C233.058 269.818 215.066 280.027 195.46 285.83C174.057 292.165 151.41 293.048 129.579 288.398C107.747 283.748 87.4254 273.713 70.4616 259.207C53.4977 244.7 40.4305 226.181 32.4488 205.336C24.4671 184.491 21.8243 161.981 24.7608 139.854C27.6973 117.728 36.12 96.6861 49.2625 78.6446C62.405 60.603 79.8501 46.134 100.011 36.5541C118.478 27.7785 138.688 23.3605 159.083 23.607C162.184 23.6445 164.56 26.303 164.392 29.3997C164.225 32.4963 161.578 34.8574 158.477 34.8319C139.952 34.6791 121.607 38.7257 104.831 46.6975C86.3614 55.4738 70.3798 68.729 58.3398 85.257C46.2999 101.785 38.5838 121.061 35.8936 141.332C33.2034 161.603 35.6245 182.224 42.9366 201.32C50.2487 220.417 62.2198 237.382 77.7605 250.671C93.3012 263.961 111.918 273.154 131.918 277.414C151.918 281.674 172.665 280.865 192.273 275.062C210.083 269.79 226.439 260.549 240.125 248.063C242.416 245.973 245.962 245.962 248.155 248.155Z"/>
</mask>
<path d="M248.155 248.155C250.348 250.348 250.356 253.913 248.073 256.012C233.058 269.818 215.066 280.027 195.46 285.83C174.057 292.165 151.41 293.048 129.579 288.398C107.747 283.748 87.4254 273.713 70.4616 259.207C53.4977 244.7 40.4305 226.181 32.4488 205.336C24.4671 184.491 21.8243 161.981 24.7608 139.854C27.6973 117.728 36.12 96.6861 49.2625 78.6446C62.405 60.603 79.8501 46.134 100.011 36.5541C118.478 27.7785 138.688 23.3605 159.083 23.607C162.184 23.6445 164.56 26.303 164.392 29.3997C164.225 32.4963 161.578 34.8574 158.477 34.8319C139.952 34.6791 121.607 38.7257 104.831 46.6975C86.3614 55.4738 70.3798 68.729 58.3398 85.257C46.2999 101.785 38.5838 121.061 35.8936 141.332C33.2034 161.603 35.6245 182.224 42.9366 201.32C50.2487 220.417 62.2198 237.382 77.7605 250.671C93.3012 263.961 111.918 273.154 131.918 277.414C151.918 281.674 172.665 280.865 192.273 275.062C210.083 269.79 226.439 260.549 240.125 248.063C242.416 245.973 245.962 245.962 248.155 248.155Z" fill="#717070" stroke="black" stroke-width="2" mask="url(#path-4-inside-3_26_93)"/>
</g>
</svg>
